<?xml version="1.0" encoding="UTF-8" standalone="no"?>
<svg width="1219px" height="756px" viewBox="0 0 1219 756" version="1.1" xmlns="http://www.w3.org/2000/svg" xmlns:xlink="http://www.w3.org/1999/xlink" xmlns:sketch="http://www.bohemiancoding.com/sketch/ns">
    <!-- Generator: Sketch 3.3 (11970) - http://www.bohemiancoding.com/sketch -->
    <title>3devices</title>
    <desc>Created with Sketch.</desc>
    <defs></defs>
    <g id="Page-1" stroke="none" stroke-width="1" fill="none" fill-rule="evenodd" sketch:type="MSPage">
        <g id="OUTLINE" sketch:type="MSArtboardGroup" transform="translate(-41.000000, -219.000000)">
            <g id="3devices" sketch:type="MSLayerGroup" transform="translate(41.000000, 219.000000)">
                <g id="Macbook-Pro" transform="translate(10.000000, 0.000000)" sketch:type="MSShapeGroup">
                    <path d="M1190,675.151386 C1190,675.614077 1189.55119,675.987437 1189.00934,675.987437 L0.993397587,675.987437 C0.44333446,675.987437 0,675.614077 0,675.151386 L0,646.792081 C0,646.336262 0.446071093,645.95603 0.993397587,645.95603 L1189.00934,645.95603 C1189.55119,645.95603 1190,646.336262 1190,646.792081 L1190,675.151386 L1190,675.151386 Z" id="Shape" fill="#C8C8C8"></path>
                    <path d="M1086.9697,38.5096666 C1086.9697,17.2413808 1069.78154,0 1048.59131,0 L146.566058,0 C125.369971,0 108.181818,17.2413808 108.181818,38.5096666 L108.181818,641.81407 L1086.96677,641.81407 L1086.96677,38.5096666 L1086.9697,38.5096666 Z M147.676768,37.7537688 L147.676768,604.060302 L1047.47475,604.060302 L1047.47475,37.7537688 L147.676768,37.7537688 Z" id="Shape" fill="#C8C8C8"></path>
                    <path d="M0.858585859,674.987437 C4.29672003,681.930448 14.9705763,687 27.6310321,687 L1162.36897,687 C1175.02394,687 1185.70328,681.933746 1189.14141,674.987437 L0.858585859,674.987437 L0.858585859,674.987437 Z" id="Shape" fill="#C8C8C8"></path>
                    <path d="M518.849598,645.95603 C518.703992,646.854244 518.585859,647.766852 518.585859,648.702492 C518.585859,657.6069 525.478793,664.832915 533.978889,664.832915 L661.178121,664.832915 C669.680964,664.832915 676.565657,657.6069 676.565657,648.702492 C676.565657,647.766852 676.453018,646.854244 676.301917,645.95603 L518.849598,645.95603 L518.849598,645.95603 Z" id="Shape" fill="#FFFFFF"></path>
                </g>
                <g id="Phone" transform="translate(937.000000, 184.000000)" sketch:type="MSShapeGroup">
                    <path d="M2.27813901,540.109735 C2.27813901,553.108862 11.1033304,559.405277 14.5071794,561.015874 C22.113046,564.614173 31.6457321,565.511923 48.5098771,566.719871 C62.2445808,567.702773 102.099322,571.659929 139.581032,571.659929 L141.470866,571.622218 C180.046629,571.622218 218.303839,568.424136 231.995592,566.946133 C247.161989,565.308773 259.684526,563.357566 267.290392,559.759268 C270.693048,558.14867 279.072029,552.500631 279.072029,540.640113 L279.072029,529.083711 L279.072029,40.0654374 L279.072029,26.6843404 C279.072029,19.0303529 272.224959,12.8568013 268.82111,11.2474203 C261.215244,7.64912165 252.09059,4.93032602 235.226445,3.72359437 C221.491741,2.74069196 183.724885,0.036493901 145.149123,0.036493901 L136.797583,0 C99.3146797,0 59.8584266,2.74069196 46.1237229,3.72359437 C29.2595779,4.93032602 21.7646675,6.76475278 14.1588009,10.3630514 C10.756145,11.9736489 2.27813901,17.560865 2.27813901,26.6843414 C2.27813901,32.7666572 2.27813901,40.0654374 2.27813901,40.0654374 L2.27813901,526.650784 L2.27813901,540.109735 Z" id="Body" fill="#C8C8C8"></path>
                    <path d="M148.079036,27.4946659 C148.079036,23.6980112 145.019594,20.6209994 141.244619,20.6209994 C137.470832,20.6209994 134.410202,23.6980112 134.410202,27.4946659 C134.410202,31.2901252 137.470832,34.3683324 141.244619,34.3683324 C145.019594,34.3683324 148.079036,31.2901252 148.079036,27.4946659" id="Speaker" fill="#FFFFFF"></path>
                    <path d="M50.1190583,29.7852989 C50.1190583,27.8880585 48.5891048,26.3490548 46.7018497,26.3490548 C44.8145947,26.3490548 43.2846412,27.8880585 43.2846412,29.7852989 C43.2846412,31.6837176 44.8145947,33.2227213 46.7018497,33.2227213 C48.5891048,33.2227213 50.1190583,31.6837176 50.1190583,29.7852989" id="Mic" fill="#FFFFFF"></path>
                    <path d="M0,109.978664 L2.27813901,109.978664 L2.27813901,199.336328 L0,199.336328 L0,109.978664 Z" id="Volumes" fill="#C8C8C8"></path>
                    <path d="M279.072029,73.3191091 L281.350168,73.3191091 L281.350168,109.978664 L279.072029,109.978664 L279.072029,73.3191091 Z" id="Power" fill="#C8C8C8"></path>
                    <path d="M14.8079036,49.2612764 L268.820403,49.2612764 L268.820403,509.79693 L14.8079036,509.79693 L14.8079036,49.2612764 Z" id="Screen" fill="#FFFFFF"></path>
                </g>
                <g id="Apple-iPhone-5S-+-Apple-iPhone-5S-path" transform="translate(0.000000, 184.000000)" sketch:type="MSShapeGroup">
                    <path d="M3.66515837,200.405172 L0,200.405172 L0,179.631466 L3.66515837,179.631466 L3.66515837,153.969828 L0,153.969828 L0,133.196121 L3.66515837,133.196121 L3.66515837,106.3125 L0,106.3125 L0,80.6508621 L3.66515837,80.6508621 L3.66515837,41.5546024 C3.66515837,19.9590767 21.1636767,2.44396552 42.749193,2.44396552 L182.036199,2.44396552 L182.036199,0 L226.0181,0 L226.0181,2.44396552 L230.915966,2.44396552 C252.499301,2.44396552 270,19.9543941 270,41.5546024 L270,527.889363 C270,549.484889 252.501482,567 230.915966,567 L42.749193,567 C21.1658565,567 3.66515837,549.489571 3.66515837,527.889363 L3.66515837,200.405172 L3.66515837,200.405172 Z M136.832579,549.892241 C149.652584,549.892241 160.045249,539.497336 160.045249,526.674569 C160.045249,513.851802 149.652584,503.456897 136.832579,503.456897 C124.012575,503.456897 113.61991,513.851802 113.61991,526.674569 C113.61991,539.497336 124.012575,549.892241 136.832579,549.892241 L136.832579,549.892241 Z M136.832579,547.448276 C148.303109,547.448276 157.60181,538.147571 157.60181,526.674569 C157.60181,515.201567 148.303109,505.900862 136.832579,505.900862 C125.362049,505.900862 116.063348,515.201567 116.063348,526.674569 C116.063348,538.147571 125.362049,547.448276 136.832579,547.448276 L136.832579,547.448276 Z" id="Apple-iPhone-5S" fill="#C8C8C8"></path>
                    <path d="M136.221719,35.4375 C139.258036,35.4375 141.719457,32.9755487 141.719457,29.9385776 C141.719457,26.9016064 139.258036,24.4396552 136.221719,24.4396552 C133.185403,24.4396552 130.723982,26.9016064 130.723982,29.9385776 C130.723982,32.9755487 133.185403,35.4375 136.221719,35.4375 L136.221719,35.4375 Z" id="Apple-iPhone-5S-path" fill="#FFFFFF"></path>
                    <path d="M114.852441,48.8793103 C114.171733,48.8793103 113.61991,49.4210803 113.61991,50.1127417 L113.61991,52.53381 C113.61991,53.2150154 114.170725,53.7672414 114.841158,53.7672414 L142.214137,53.7672414 L157.592131,53.7672414 C158.272214,53.7672414 158.823529,53.2254714 158.823529,52.53381 L158.823529,50.1127417 C158.823529,49.4315363 158.284381,48.8793103 157.590998,48.8793103 L114.852441,48.8793103 L114.852441,48.8793103 Z" id="Apple-iPhone-5S-path" fill="#FFFFFF"></path>
                    <path d="M98.959276,54.9892241 C100.983487,54.9892241 102.624434,53.3479233 102.624434,51.3232759 C102.624434,49.2986285 100.983487,47.6573276 98.959276,47.6573276 C96.9350649,47.6573276 95.2941176,49.2986285 95.2941176,51.3232759 C95.2941176,53.3479233 96.9350649,54.9892241 98.959276,54.9892241 L98.959276,54.9892241 Z" id="Apple-iPhone-5S-path" fill="#FFFFFF"></path>
                    <path d="M21.9841876,80.6508621 C20.6384485,80.6508621 19.5475113,81.7536701 19.5475113,83.106625 L19.5475113,487.559324 C19.5475113,488.915604 20.6455351,490.015086 21.9841876,490.015086 L251.68097,490.015086 C253.02671,490.015086 254.117647,488.912279 254.117647,487.559324 L254.117647,83.106625 C254.117647,81.7503446 253.019623,80.6508621 251.68097,80.6508621 L21.9841876,80.6508621 L21.9841876,80.6508621 Z" id="Apple-iPhone-5S-path" fill="#FFFFFF"></path>
                </g>
            </g>
        </g>
    </g>
</svg>