<?xml version="1.0" encoding="UTF-8" standalone="no"?>
<svg width="282px" height="572px" viewBox="0 0 282 572" version="1.1" xmlns="http://www.w3.org/2000/svg" xmlns:xlink="http://www.w3.org/1999/xlink" xmlns:sketch="http://www.bohemiancoding.com/sketch/ns">
    <!-- Generator: Sketch 3.3 (11970) - http://www.bohemiancoding.com/sketch -->
    <title>android</title>
    <desc>Created with Sketch.</desc>
    <defs></defs>
    <g id="Page-1" stroke="none" stroke-width="1" fill="none" fill-rule="evenodd" sketch:type="MSPage">
        <g id="OUTLINE" sketch:type="MSArtboardGroup" transform="translate(-978.000000, -403.000000)">
            <g id="3devices" sketch:type="MSLayerGroup" transform="translate(41.000000, 219.000000)">
                <g id="android" transform="translate(937.000000, 184.000000)" sketch:type="MSShapeGroup">
                    <path d="M2.27813901,540.109735 C2.27813901,553.108862 11.1033304,559.405277 14.5071794,561.015874 C22.113046,564.614173 31.6457321,565.511923 48.5098771,566.719871 C62.2445808,567.702773 102.099322,571.659929 139.581032,571.659929 L141.470866,571.622218 C180.046629,571.622218 218.303839,568.424136 231.995592,566.946133 C247.161989,565.308773 259.684526,563.357566 267.290392,559.759268 C270.693048,558.14867 279.072029,552.500631 279.072029,540.640113 L279.072029,529.083711 L279.072029,40.0654374 L279.072029,26.6843404 C279.072029,19.0303529 272.224959,12.8568013 268.82111,11.2474203 C261.215244,7.64912165 252.09059,4.93032602 235.226445,3.72359437 C221.491741,2.74069196 183.724885,0.036493901 145.149123,0.036493901 L136.797583,0 C99.3146797,0 59.8584266,2.74069196 46.1237229,3.72359437 C29.2595779,4.93032602 21.7646675,6.76475278 14.1588009,10.3630514 C10.756145,11.9736489 2.27813901,17.560865 2.27813901,26.6843414 C2.27813901,32.7666572 2.27813901,40.0654374 2.27813901,40.0654374 L2.27813901,526.650784 L2.27813901,540.109735 Z" id="Body" fill="#C8C8C8"></path>
                    <path d="M148.079036,27.4946659 C148.079036,23.6980112 145.019594,20.6209994 141.244619,20.6209994 C137.470832,20.6209994 134.410202,23.6980112 134.410202,27.4946659 C134.410202,31.2901252 137.470832,34.3683324 141.244619,34.3683324 C145.019594,34.3683324 148.079036,31.2901252 148.079036,27.4946659" id="Speaker" fill="#FFFFFF"></path>
                    <path d="M50.1190583,29.7852989 C50.1190583,27.8880585 48.5891048,26.3490548 46.7018497,26.3490548 C44.8145947,26.3490548 43.2846412,27.8880585 43.2846412,29.7852989 C43.2846412,31.6837176 44.8145947,33.2227213 46.7018497,33.2227213 C48.5891048,33.2227213 50.1190583,31.6837176 50.1190583,29.7852989" id="Mic" fill="#FFFFFF"></path>
                    <path d="M0,109.978664 L2.27813901,109.978664 L2.27813901,199.336328 L0,199.336328 L0,109.978664 Z" id="Volumes" fill="#C8C8C8"></path>
                    <path d="M279.072029,73.3191091 L281.350168,73.3191091 L281.350168,109.978664 L279.072029,109.978664 L279.072029,73.3191091 Z" id="Power" fill="#C8C8C8"></path>
                    <path d="M14.8079036,49.2612764 L268.820403,49.2612764 L268.820403,509.79693 L14.8079036,509.79693 L14.8079036,49.2612764 Z" id="Screen" fill="#FFFFFF"></path>
                </g>
            </g>
        </g>
    </g>
</svg>