<?xml version="1.0" encoding="UTF-8" standalone="no"?>
<svg width="270px" height="567px" viewBox="0 0 270 567" version="1.1" xmlns="http://www.w3.org/2000/svg" xmlns:xlink="http://www.w3.org/1999/xlink" xmlns:sketch="http://www.bohemiancoding.com/sketch/ns">
    <!-- Generator: Sketch 3.3 (11970) - http://www.bohemiancoding.com/sketch -->
    <title>iphone</title>
    <desc>Created with Sketch.</desc>
    <defs></defs>
    <g id="Page-1" stroke="none" stroke-width="1" fill="none" fill-rule="evenodd" sketch:type="MSPage">
        <g id="OUTLINE" sketch:type="MSArtboardGroup" transform="translate(-41.000000, -403.000000)">
            <g id="3devices" sketch:type="MSLayerGroup" transform="translate(41.000000, 219.000000)">
                <g id="iphone" transform="translate(0.000000, 184.000000)" sketch:type="MSShapeGroup">
                    <path d="M3.66515837,200.405172 L0,200.405172 L0,179.631466 L3.66515837,179.631466 L3.66515837,153.969828 L0,153.969828 L0,133.196121 L3.66515837,133.196121 L3.66515837,106.3125 L0,106.3125 L0,80.6508621 L3.66515837,80.6508621 L3.66515837,41.5546024 C3.66515837,19.9590767 21.1636767,2.44396552 42.749193,2.44396552 L182.036199,2.44396552 L182.036199,0 L226.0181,0 L226.0181,2.44396552 L230.915966,2.44396552 C252.499301,2.44396552 270,19.9543941 270,41.5546024 L270,527.889363 C270,549.484889 252.501482,567 230.915966,567 L42.749193,567 C21.1658565,567 3.66515837,549.489571 3.66515837,527.889363 L3.66515837,200.405172 L3.66515837,200.405172 Z M136.832579,549.892241 C149.652584,549.892241 160.045249,539.497336 160.045249,526.674569 C160.045249,513.851802 149.652584,503.456897 136.832579,503.456897 C124.012575,503.456897 113.61991,513.851802 113.61991,526.674569 C113.61991,539.497336 124.012575,549.892241 136.832579,549.892241 L136.832579,549.892241 Z M136.832579,547.448276 C148.303109,547.448276 157.60181,538.147571 157.60181,526.674569 C157.60181,515.201567 148.303109,505.900862 136.832579,505.900862 C125.362049,505.900862 116.063348,515.201567 116.063348,526.674569 C116.063348,538.147571 125.362049,547.448276 136.832579,547.448276 L136.832579,547.448276 Z" id="Apple-iPhone-5S" fill="#C8C8C8"></path>
                    <path d="M136.221719,35.4375 C139.258036,35.4375 141.719457,32.9755487 141.719457,29.9385776 C141.719457,26.9016064 139.258036,24.4396552 136.221719,24.4396552 C133.185403,24.4396552 130.723982,26.9016064 130.723982,29.9385776 C130.723982,32.9755487 133.185403,35.4375 136.221719,35.4375 L136.221719,35.4375 Z" id="Apple-iPhone-5S-path" fill="#FFFFFF"></path>
                    <path d="M114.852441,48.8793103 C114.171733,48.8793103 113.61991,49.4210803 113.61991,50.1127417 L113.61991,52.53381 C113.61991,53.2150154 114.170725,53.7672414 114.841158,53.7672414 L142.214137,53.7672414 L157.592131,53.7672414 C158.272214,53.7672414 158.823529,53.2254714 158.823529,52.53381 L158.823529,50.1127417 C158.823529,49.4315363 158.284381,48.8793103 157.590998,48.8793103 L114.852441,48.8793103 L114.852441,48.8793103 Z" id="Apple-iPhone-5S-path" fill="#FFFFFF"></path>
                    <path d="M98.959276,54.9892241 C100.983487,54.9892241 102.624434,53.3479233 102.624434,51.3232759 C102.624434,49.2986285 100.983487,47.6573276 98.959276,47.6573276 C96.9350649,47.6573276 95.2941176,49.2986285 95.2941176,51.3232759 C95.2941176,53.3479233 96.9350649,54.9892241 98.959276,54.9892241 L98.959276,54.9892241 Z" id="Apple-iPhone-5S-path" fill="#FFFFFF"></path>
                    <path d="M21.9841876,80.6508621 C20.6384485,80.6508621 19.5475113,81.7536701 19.5475113,83.106625 L19.5475113,487.559324 C19.5475113,488.915604 20.6455351,490.015086 21.9841876,490.015086 L251.68097,490.015086 C253.02671,490.015086 254.117647,488.912279 254.117647,487.559324 L254.117647,83.106625 C254.117647,81.7503446 253.019623,80.6508621 251.68097,80.6508621 L21.9841876,80.6508621 L21.9841876,80.6508621 Z" id="Apple-iPhone-5S-path" fill="#FFFFFF"></path>
                </g>
            </g>
        </g>
    </g>
</svg>