<?xml version="1.0" encoding="UTF-8" standalone="no"?>
<svg width="61px" height="61px" viewBox="0 0 61 61" version="1.1" xmlns="http://www.w3.org/2000/svg" xmlns:xlink="http://www.w3.org/1999/xlink" xmlns:sketch="http://www.bohemiancoding.com/sketch/ns">
    <!-- Generator: Sketch 3.0.4 (8053) - http://www.bohemiancoding.com/sketch -->
    <title>logo</title>
    <desc>Created with Sketch.</desc>
    <defs></defs>
    <g id="Page-1" stroke="none" stroke-width="1" fill="none" fill-rule="evenodd" sketch:type="MSPage">
        <g id="Landscape" sketch:type="MSArtboardGroup" transform="translate(-60.000000, -60.000000)" fill="#EDEDED">
            <g id="logo" sketch:type="MSLayerGroup" transform="translate(60.000000, 60.000000)">
                <path d="M30.0251891,60.1011218 C13.442736,60.1011218 0,46.6583858 0,30.0759327 C0,13.4934797 13.442736,0.0507436696 30.0251891,0.0507436696 C46.6076421,0.0507436696 60.0505303,13.4934797 60.0505303,30.0759327 C60.0505303,46.6583858 46.6076421,60.1011218 30.0251891,60.1011218 Z M42.4690584,16.162825 C41.9929656,15.9126822 41.5699749,15.7135114 40.4228789,15.7135114 L24.7344882,15.7135114 L24.5940492,16.2211003 L28.3426903,16.3525622 L25.3135899,27.2900672 L25.6880432,27.3048263 L25.318611,27.2952405 C24.3662733,31.0595535 23.6146279,34.7091417 22.3640666,39.861412 C21.4144676,43.830982 20.5847668,45.7189204 18.1251823,45.5777206 L18.1295948,45.5022518 C18.9306905,45.4340863 19.8045163,44.7633874 19.8717688,43.590425 C19.9306527,42.5687047 19.2725827,41.4678637 17.64559,41.3745928 C16.283499,41.296233 15.1783978,42.0297719 15.0825402,43.694499 C14.9932252,45.2460229 16.7239876,46.1807106 18.0859263,46.2587661 C23.5345944,46.5722052 28.6225032,33.3499417 29.3400658,30.7715242 C29.3400658,30.7715242 29.5048496,30.173251 30.2914906,27.4845212 L30.2971204,27.4848256 L32.8254789,27.4848256 C34.3763941,27.4848256 35.2193324,27.8894055 35.2193324,29.2715809 C35.2193324,30.1143671 35.0842188,30.923527 34.8821571,31.7663132 L35.4213941,31.7663132 C36.0621186,28.9006272 36.8709742,26.0688718 37.6801341,23.2371163 L37.1069665,23.2371163 L36.5677294,24.7877272 C36.028188,26.3048641 35.0842188,26.8780317 33.4324249,26.8780317 L30.5331127,26.8780317 L33.3432621,16.3203053 L40.1082225,16.2891135 C40.7055828,16.2770933 41.3059861,16.2206438 41.8928477,16.5333222 L41.845071,16.622485 C40.7483383,16.4583098 40.07627,16.7878774 39.5691376,17.7399108 C39.0300527,18.751589 39.4690196,19.8638415 40.5105201,20.4187505 C41.6112089,21.0051556 42.8421423,20.6675239 43.4293082,19.5289485 C44.2077328,18.018963 43.4671948,16.6874552 42.4690584,16.162825 Z" id="Fill-1" sketch:type="MSShapeGroup"></path>
            </g>
        </g>
    </g>
</svg>