<?xml version="1.0" encoding="UTF-8" standalone="no"?>
<svg width="1190px" height="687px" viewBox="0 0 1190 687" version="1.1" xmlns="http://www.w3.org/2000/svg" xmlns:xlink="http://www.w3.org/1999/xlink" xmlns:sketch="http://www.bohemiancoding.com/sketch/ns">
    <!-- Generator: Sketch 3.3 (11970) - http://www.bohemiancoding.com/sketch -->
    <title>macbook</title>
    <desc>Created with Sketch.</desc>
    <defs></defs>
    <g id="Page-1" stroke="none" stroke-width="1" fill="none" fill-rule="evenodd" sketch:type="MSPage">
        <g id="OUTLINE" sketch:type="MSArtboardGroup" transform="translate(-51.000000, -219.000000)">
            <g id="3devices" sketch:type="MSLayerGroup" transform="translate(41.000000, 219.000000)">
                <g id="macbook" transform="translate(10.000000, 0.000000)" sketch:type="MSShapeGroup">
                    <path d="M1190,675.151386 C1190,675.614077 1189.55119,675.987437 1189.00934,675.987437 L0.993397587,675.987437 C0.44333446,675.987437 0,675.614077 0,675.151386 L0,646.792081 C0,646.336262 0.446071093,645.95603 0.993397587,645.95603 L1189.00934,645.95603 C1189.55119,645.95603 1190,646.336262 1190,646.792081 L1190,675.151386 L1190,675.151386 Z" id="Shape" fill="#C8C8C8"></path>
                    <path d="M1086.9697,38.5096666 C1086.9697,17.2413808 1069.78154,0 1048.59131,0 L146.566058,0 C125.369971,0 108.181818,17.2413808 108.181818,38.5096666 L108.181818,641.81407 L1086.96677,641.81407 L1086.96677,38.5096666 L1086.9697,38.5096666 Z M147.676768,37.7537688 L147.676768,604.060302 L1047.47475,604.060302 L1047.47475,37.7537688 L147.676768,37.7537688 Z" id="Shape" fill="#C8C8C8"></path>
                    <path d="M0.858585859,674.987437 C4.29672003,681.930448 14.9705763,687 27.6310321,687 L1162.36897,687 C1175.02394,687 1185.70328,681.933746 1189.14141,674.987437 L0.858585859,674.987437 L0.858585859,674.987437 Z" id="Shape" fill="#C8C8C8"></path>
                    <path d="M518.849598,645.95603 C518.703992,646.854244 518.585859,647.766852 518.585859,648.702492 C518.585859,657.6069 525.478793,664.832915 533.978889,664.832915 L661.178121,664.832915 C669.680964,664.832915 676.565657,657.6069 676.565657,648.702492 C676.565657,647.766852 676.453018,646.854244 676.301917,645.95603 L518.849598,645.95603 L518.849598,645.95603 Z" id="Shape" fill="#FFFFFF"></path>
                </g>
            </g>
        </g>
    </g>
</svg>